<?xml version="1.0" encoding="UTF-8" standalone="no"?>
<!-- Created with Inkscape (http://www.inkscape.org/) -->

<svg
   xmlns:osb="http://www.openswatchbook.org/uri/2009/osb"
   xmlns:dc="http://purl.org/dc/elements/1.1/"
   xmlns:cc="http://creativecommons.org/ns#"
   xmlns:rdf="http://www.w3.org/1999/02/22-rdf-syntax-ns#"
   xmlns:svg="http://www.w3.org/2000/svg"
   xmlns="http://www.w3.org/2000/svg"
   xmlns:sodipodi="http://sodipodi.sourceforge.net/DTD/sodipodi-0.dtd"
   xmlns:inkscape="http://www.inkscape.org/namespaces/inkscape"
   width="100"
   height="100"
   viewBox="0 0 26.458333 26.458333"
   version="1.1"
   id="svg869"
   inkscape:export-filename="C:\Workspace\LEAP_Project\LEAP_dev\opensesame_plugins\calibration\other\pause.png"
   inkscape:export-xdpi="96"
   inkscape:export-ydpi="96"
   inkscape:version="0.92.4 (5da689c313, 2019-01-14)"
   sodipodi:docname="drawing.svg">
  <defs
     id="defs863">
    <linearGradient
       id="linearGradient1422"
       osb:paint="solid">
      <stop
         style="stop-color:#000000;stop-opacity:1;"
         offset="0"
         id="stop1420" />
    </linearGradient>
  </defs>
  <sodipodi:namedview
     id="base"
     pagecolor="#ffffff"
     bordercolor="#666666"
     borderopacity="1.0"
     inkscape:pageopacity="0.0"
     inkscape:pageshadow="2"
     inkscape:zoom="8.0000004"
     inkscape:cx="25.238028"
     inkscape:cy="64.757468"
     inkscape:document-units="mm"
     inkscape:current-layer="layer2"
     showgrid="false"
     units="px"
     width="75px"
     inkscape:pagecheckerboard="true"
     inkscape:window-width="1920"
     inkscape:window-height="1137"
     inkscape:window-x="1912"
     inkscape:window-y="-8"
     inkscape:window-maximized="1" />
  <metadata
     id="metadata866">
    <rdf:RDF>
      <cc:Work
         rdf:about="">
        <dc:format>image/svg+xml</dc:format>
        <dc:type
           rdf:resource="http://purl.org/dc/dcmitype/StillImage" />
        <dc:title></dc:title>
      </cc:Work>
    </rdf:RDF>
  </metadata>
  <g
     inkscape:label="Layer 1"
     inkscape:groupmode="layer"
     id="layer1"
     transform="translate(0,-270.54166)"
     style="display:inline">
    <path
       style="fill:#000000;fill-opacity:1;fill-rule:evenodd;stroke:#4b0000;stroke-width:0.01424716;stroke-linejoin:round;stroke-miterlimit:4;stroke-dasharray:none;stroke-opacity:1"
       d="m 10.076999,271.22043 c -0.5738679,-0.0231 -1.1533313,0.0795 -1.6645471,0.30396 -0.6161796,0.27065 -1.0294159,0.69166 -1.1657471,1.18956 l -0.036112,0.13285 v 10.9845 c 0,8.96643 0.00398,11.0011 0.02144,11.07755 0.1382331,0.60011 0.6798648,1.0955 1.4862432,1.35994 0.4820795,0.1581 0.9752548,0.21855 1.479471,0.18162 0.319459,-0.0234 1.579462,-0.29961 1.909432,-1.53854 -0.0187,-0.28219 0.0564,-0.79875 0.174675,-11.10587 0.03816,-4.89635 0.0066,-10.93826 -0.01895,-11.18434 -0.09761,-0.93854 -1.084766,-1.19364 -1.175902,-1.22334 -0.323484,-0.1051 -0.665693,-0.16401 -1.010014,-0.17787 z m -0.2110314,0.88637 c 0.1369814,-0.004 0.2661594,0.0184 0.3862714,0.0397 0.390789,0.12198 0.553974,0.27264 0.722506,0.63709 0.02981,0.0644 0.04147,1.21193 0.06397,11.08548 -0.113692,10.71297 -0.117626,10.83896 -0.121536,10.94079 -0.09271,0.34128 -0.240988,0.47874 -0.638723,0.66601 -0.2909019,0.10943 -0.4655418,0.10372 -0.6314207,0.10608 -0.1658806,0.003 -0.3174447,-0.0175 -0.5507121,-0.10803 -0.2513227,-0.0935 -0.501617,-0.28407 -0.529296,-0.6477 -0.019491,-0.0749 -0.021838,-1.7412 -0.018048,-11.03403 0.00415,-10.58119 0.00448,-10.94761 0.033856,-11.0115 0.1404294,-0.30545 0.4521388,-0.52525 0.8813635,-0.62368 0.1271223,-0.0291 0.2647682,-0.046 0.4017481,-0.0503 z"
       id="path1428"
       inkscape:connector-curvature="0"
       sodipodi:nodetypes="ccccscccccsccccsccczcccsccc" />
    <path
       style="fill:#000000;fill-opacity:1;fill-rule:evenodd;stroke:#4b0000;stroke-width:0.01462628;stroke-linejoin:round;stroke-miterlimit:4;stroke-dasharray:none;stroke-opacity:1"
       d="m 18.016749,271.22061 c -0.604817,-0.0231 -1.215528,0.0795 -1.754316,0.30396 -0.649409,0.27063 -1.084933,0.69166 -1.228615,1.18957 l -0.03807,0.13285 v 10.98448 c 0,8.96645 0.0042,11.00112 0.02256,11.07757 0.145692,0.60011 0.71653,1.09548 1.566395,1.35992 0.508079,0.15811 1.027852,0.21857 1.559261,0.18163 0.336687,-0.0234 1.664644,-0.2996 2.012408,-1.53855 -0.01989,-0.28217 0.05945,-0.79874 0.184109,-11.10585 0.0402,-4.89635 0.0069,-10.93826 -0.02011,-11.18436 -0.10288,-0.93854 -1.14327,-1.19363 -1.239323,-1.22332 -0.340924,-0.10497 -0.701591,-0.16402 -1.06448,-0.17789 z m -0.222422,0.88636 c 0.144389,-0.004 0.280513,0.0184 0.407102,0.0397 0.411862,0.12198 0.58385,0.27266 0.761471,0.6371 0.03142,0.0644 0.04372,1.21192 0.0674,11.08549 -0.119823,10.71295 -0.123954,10.83894 -0.128085,10.94077 -0.09771,0.34128 -0.253986,0.47874 -0.673171,0.66602 -0.306592,0.10956 -0.490648,0.10371 -0.665474,0.10622 -0.174831,0.003 -0.334562,-0.0174 -0.580409,-0.10804 -0.264878,-0.0935 -0.52867,-0.28405 -0.557844,-0.6477 -0.02054,-0.0747 -0.02302,-1.7412 -0.01899,-11.03403 0.0044,-10.58118 0.0046,-10.94761 0.03567,-11.0115 0.148011,-0.30545 0.476523,-0.52523 0.928896,-0.62366 0.133983,-0.0292 0.279045,-0.046 0.423414,-0.0503 z"
       id="path1428-6"
       inkscape:connector-curvature="0"
       sodipodi:nodetypes="ccccscccccsccccsccczcccsccc" />
  </g>
  <g
     inkscape:groupmode="layer"
     id="layer2"
     inkscape:label="Layer 2"
     style="display:none">
    <path
       style="fill:#000000;stroke-width:0;stroke-miterlimit:4;stroke-dasharray:none"
       d="M 4.274175,24.905586 C 3.8974753,24.54894 3.7761886,21.635644 3.7761886,12.943986 c 0,-11.2074278 0.020127,-11.5002232 0.81804,-11.9005564 C 5.5642817,0.55672964 5.86367,0.70865494 16.24676,6.956536 c 7.213476,4.34061 8.509859,5.427252 8.060009,6.75599 C 24.041967,14.494687 6.9984625,24.972923 5.5689401,25.232422 5.1307119,25.311965 4.5480677,25.164892 4.274175,24.905586 Z m 10.072836,-6.158603 c 7.366228,-4.452215 8.168591,-5.029377 8.072945,-5.807097 C 22.332782,12.231063 20.906591,11.221 14.460062,7.3025027 10.140531,4.6768929 6.3125647,2.5286665 5.9534701,2.5286665 c -0.6120257,0 -0.6528991,0.6479211 -0.6528991,10.3496575 0,9.426676 0.086827,10.812211 0.6775636,10.812211 0.1043513,0 3.8703457,-2.224598 8.3688764,-4.943552 z"
       id="path1376"
       inkscape:connector-curvature="0"
       sodipodi:nodetypes="cssscccscsssss" />
  </g>
</svg>
